<?xml version="1.0" encoding="UTF-8" standalone="no"?>
<!-- Created with Inkscape (http://www.inkscape.org/) -->

<svg
   width="2167.1665"
   height="500"
   viewBox="0 0 573.39613 132.29166"
   version="1.1"
   id="svg1"
   inkscape:export-filename="reserbologo.png"
   inkscape:export-xdpi="100"
   inkscape:export-ydpi="100"
   inkscape:version="1.3.2 (091e20e, 2023-11-25)"
   sodipodi:docname="reserbo.svg"
   xmlns:inkscape="http://www.inkscape.org/namespaces/inkscape"
   xmlns:sodipodi="http://sodipodi.sourceforge.net/DTD/sodipodi-0.dtd"
   xmlns="http://www.w3.org/2000/svg"
   xmlns:svg="http://www.w3.org/2000/svg">
  <sodipodi:namedview
     id="namedview1"
     pagecolor="#ffffff"
     bordercolor="#666666"
     borderopacity="1.0"
     inkscape:showpageshadow="2"
     inkscape:pageopacity="0.0"
     inkscape:pagecheckerboard="0"
     inkscape:deskcolor="#d1d1d1"
     inkscape:document-units="mm"
     inkscape:zoom="0.29106735"
     inkscape:cx="1193.8818"
     inkscape:cy="807.37328"
     inkscape:window-width="1792"
     inkscape:window-height="1011"
     inkscape:window-x="0"
     inkscape:window-y="25"
     inkscape:window-maximized="0"
     inkscape:current-layer="layer1"
     inkscape:export-bgcolor="#ffffff00" />
  <defs
     id="defs1" />
  <g
     inkscape:label="Capa 1"
     inkscape:groupmode="layer"
     id="layer1">
    <g
       id="g1"
       transform="matrix(2.4186815,0,0,2.4186815,159.34576,-175.34435)"
       inkscape:export-filename="reserbologo.png"
       inkscape:export-xdpi="100"
       inkscape:export-ydpi="100">
      <path
         d="M 4.9060099,112.01287 V 88.168476 h 6.1752021 l 0.225418,7.662665 -1.081772,-1.577642 q 0.540692,-1.847967 1.757895,-3.335429 1.216944,-1.532563 2.839665,-2.389003 1.667736,-0.856375 3.47071,-0.856375 0.766108,0 1.487462,0.134784 0.721202,0.135648 1.217052,0.315273 l -1.712902,7.031578 q -0.540691,-0.270346 -1.307123,-0.450857 -0.766109,-0.225418 -1.577643,-0.225418 -1.081793,0 -2.028305,0.405929 -0.901454,0.361001 -1.577555,1.081793 -0.676275,0.676252 -1.081793,1.622635 -0.361001,0.94662 -0.361001,2.073405 v 12.350426 z"
         style="-inkscape-font-specification:'Lexend, @wght=600';white-space:pre;fill:#ffffff;fill-opacity:1;stroke-width:3.7562"
         id="path20248-4-7-3" />
      <path
         d="m 34.971351,112.46364 q -3.876379,0 -6.761145,-1.57765 -2.884767,-1.57755 -4.507488,-4.32714 -1.622635,-2.74951 -1.622635,-6.31038 0,-2.749593 0.901432,-5.048352 0.901541,-2.298823 2.524176,-3.966537 1.622722,-1.712815 3.831387,-2.614356 2.253744,-0.946533 4.867991,-0.946533 2.434083,0 4.507488,0.901454 2.073406,0.85644 3.560868,2.479097 1.532563,1.57762 2.343837,3.741206 0.811037,2.163564 0.721181,4.732819 l -0.04903,1.983252 H 26.132826 l -1.036692,-3.921485 h 14.919594 l -0.721202,0.811037 v -0.991613 q -0.08986,-1.217052 -0.811037,-2.208665 -0.676253,-0.991612 -1.757894,-1.532541 -1.081771,-0.540691 -2.433996,-0.540691 -1.983226,0 -3.380616,0.766109 -1.352203,0.766108 -2.073405,2.253743 -0.721181,1.487463 -0.721181,3.605947 0,2.163589 0.901519,3.741209 0.946534,1.57755 2.614269,2.47909 1.71288,0.85644 4.011639,0.85644 1.57762,0 2.884766,-0.49576 1.30721,-0.49576 2.794673,-1.71281 l 3.065018,4.28207 q -1.307124,1.17195 -2.884766,1.98322 -1.577643,0.76611 -3.245357,1.17195 -1.667736,0.40593 -3.290457,0.40593 z"
         style="-inkscape-font-specification:'Lexend, @wght=600';white-space:pre;fill:#ffffff;fill-opacity:1;stroke-width:3.7562"
         id="path20250-7-1-7" />
      <path
         d="m 58.091687,112.46364 q -3.33545,0 -5.949784,-1.0818 -2.569255,-1.12687 -4.146897,-3.0651 l 3.966559,-3.42563 q 1.39739,1.48748 3.110183,2.16358 1.712816,0.63135 3.425631,0.63135 0.676252,0 1.21703,-0.13478 0.585619,-0.18058 0.991613,-0.45086 0.405929,-0.31525 0.58644,-0.72118 0.225417,-0.45086 0.225417,-0.94662 0,-0.99161 -0.811036,-1.57756 -0.450836,-0.22541 -1.397304,-0.54069 -0.946534,-0.361 -2.433996,-0.76611 -2.298823,-0.58559 -3.921458,-1.3522 -1.577643,-0.81104 -2.524176,-1.802994 -0.811037,-0.946512 -1.262132,-2.028305 -0.405907,-1.126872 -0.405907,-2.479097 0,-1.622721 0.721181,-2.929845 0.721202,-1.352203 1.983312,-2.298823 1.307146,-0.946534 2.974946,-1.442384 1.667715,-0.540691 3.515789,-0.540691 1.848053,0 3.605947,0.450857 1.757894,0.450835 3.245357,1.307124 1.532476,0.811037 2.659348,1.938233 l -3.425608,3.786199 q -0.811037,-0.766109 -1.848075,-1.397283 -0.991612,-0.631346 -2.073405,-0.991634 -1.081793,-0.36018 -1.938233,-0.36018 -0.766109,0 -1.397304,0.134784 -0.585597,0.135648 -0.991613,0.405929 -0.405928,0.270345 -0.631346,0.721202 -0.180576,0.405907 -0.180576,0.901519 0,0.495764 0.225418,0.946534 0.270345,0.450857 0.72118,0.766109 0.495764,0.270345 1.442384,0.631346 0.991699,0.361001 2.659435,0.811037 2.163563,0.585619 3.651026,1.307124 1.532563,0.721202 2.434017,1.667819 0.766109,0.81102 1.126872,1.84797 0.361001,1.0368 0.361001,2.29882 0,2.20867 -1.262131,3.96656 -1.216966,1.71282 -3.38053,2.70452 -2.163585,0.94653 -4.868078,0.94653 z"
         style="-inkscape-font-specification:'Lexend, @wght=600';white-space:pre;fill:#ffffff;fill-opacity:1;stroke-width:3.7562"
         id="path20252-4-8-6" />
      <path
         d="m 83.479246,112.46364 q -3.876465,0 -6.76121,-1.57765 -2.884766,-1.57755 -4.507423,-4.32714 -1.622721,-2.74951 -1.622721,-6.31038 0,-2.749593 0.90154,-5.048352 0.901455,-2.298823 2.524176,-3.966537 1.622635,-1.712815 3.8313,-2.614356 2.253722,-0.946533 4.868078,-0.946533 2.433996,0 4.507402,0.901454 2.073405,0.85644 3.560868,2.479097 1.532541,1.57762 2.343902,3.741206 0.811037,2.163564 0.721202,4.732819 l -0.04903,1.983252 H 74.64068 l -1.036692,-3.921485 h 14.919659 l -0.721181,0.811037 v -0.991613 q -0.08986,-1.217052 -0.811036,-2.208665 -0.676275,-0.991612 -1.757895,-1.532541 -1.081792,-0.540691 -2.434082,-0.540691 -1.983225,0 -3.380529,0.766109 -1.352225,0.766108 -2.073406,2.253743 -0.721202,1.487463 -0.721202,3.605947 0,2.163589 0.901454,3.741209 0.946534,1.57755 2.614334,2.47909 1.712816,0.85644 4.011639,0.85644 1.577556,0 2.884766,-0.49576 1.307124,-0.49576 2.794608,-1.71281 l 3.065018,4.28207 q -1.307124,1.17195 -2.884766,1.98322 -1.577556,0.76611 -3.245357,1.17195 -1.667736,0.40593 -3.290371,0.40593 z"
         style="-inkscape-font-specification:'Lexend, @wght=600';white-space:pre;fill:#ffffff;fill-opacity:1;stroke-width:3.7562"
         id="path20254-1-9-8" />
      <path
         d="M 98.576328,112.01287 V 88.168476 h 6.175202 l 0.22544,7.662665 -1.08179,-1.577642 q 0.54069,-1.847967 1.75789,-3.335429 1.21703,-1.532563 2.83975,-2.389003 1.66774,-0.856375 3.47071,-0.856375 0.76611,0 1.48746,0.134784 0.72121,0.135648 1.21697,0.315273 l -1.71282,7.031578 q -0.54069,-0.270346 -1.30712,-0.450857 -0.76611,-0.225418 -1.57764,-0.225418 -1.08179,0 -2.02831,0.405929 -0.90154,0.361001 -1.57764,1.081793 -0.67627,0.676252 -1.08179,1.622635 -0.361,0.94662 -0.361,2.073405 v 12.350426 z"
         style="-inkscape-font-specification:'Lexend, @wght=600';white-space:pre;fill:#ffffff;fill-opacity:1;stroke-width:3.7562"
         id="path20256-8-3-6" />
      <path
         d="m 132.0441,112.46364 q -1.57756,0 -3.06504,-0.45086 -1.48746,-0.45086 -2.70449,-1.21697 -1.21697,-0.81103 -2.02833,-1.80297 -0.81103,-1.03678 -1.03669,-2.11857 l 1.44236,-0.54069 -0.31525,5.58919 h -6.04005 V 78.657889 h 6.40064 v 15.099933 l -1.21703,-0.495763 q 0.27035,-1.081793 1.03669,-2.073406 0.76611,-1.036713 1.93823,-1.802973 1.17187,-0.811037 2.56926,-1.262045 1.3973,-0.450857 2.88477,-0.450857 3.11009,0 5.54411,1.622635 2.434,1.577642 3.83128,4.372229 1.44238,2.794608 1.44238,6.400558 0,3.60597 -1.39728,6.40064 -1.3973,2.79458 -3.8313,4.41724 -2.38892,1.57762 -5.45402,1.57762 z m -1.53256,-5.45402 q 1.80297,0 3.11018,-0.85647 1.35223,-0.90143 2.11849,-2.43399 0.76613,-1.57756 0.76613,-3.65103 0,-2.028324 -0.76613,-3.605967 -0.72118,-1.577556 -2.07339,-2.433996 -1.35231,-0.856375 -3.15528,-0.856375 -1.80298,0 -3.1552,0.856375 -1.3522,0.85644 -2.11849,2.433996 -0.7661,1.577643 -0.7661,3.605967 0,2.07347 0.7661,3.65103 0.76611,1.53256 2.11849,2.43399 1.35222,0.85647 3.1552,0.85647 z"
         style="-inkscape-font-specification:'Lexend, @wght=600';white-space:pre;fill:#ffffff;fill-opacity:1;stroke-width:3.7562"
         id="path20258-58-7-7" />
      <path
         d="m 158.61268,112.46364 q -3.65105,0 -6.53581,-1.57765 -2.83969,-1.62263 -4.50749,-4.41724 -1.62263,-2.79467 -1.62263,-6.40062 0,-3.605967 1.62263,-6.355474 1.6678,-2.794586 4.50749,-4.417308 2.88476,-1.622656 6.53581,-1.622656 3.60595,0 6.44564,1.622656 2.88476,1.622722 4.5074,4.417308 1.62272,2.749507 1.62272,6.355474 0,3.60595 -1.62272,6.40062 -1.62264,2.79461 -4.5074,4.41724 -2.83969,1.57765 -6.44564,1.57765 z m 0,-5.58928 q 1.7579,0 3.15518,-0.85638 1.3973,-0.90152 2.16358,-2.43399 0.81104,-1.57763 0.81104,-3.51586 0,-1.983245 -0.81104,-3.515787 -0.7661,-1.577642 -2.16358,-2.434017 -1.39728,-0.901519 -3.15518,-0.901519 -1.80297,0 -3.20027,0.901519 -1.39731,0.901454 -2.20867,2.434017 -0.81104,1.532542 -0.76611,3.515787 -0.049,1.93823 0.76611,3.51586 0.81104,1.53247 2.20867,2.43399 1.3973,0.85638 3.20027,0.85638 z"
         style="-inkscape-font-specification:'Lexend, @wght=600';white-space:pre;fill:#ffffff;fill-opacity:1;stroke-width:3.7562"
         id="path20260-9-4-1" />
      <path
         id="path24-2-9-9-8-8"
         style="font-variation-settings:'wght' 600;fill:#ffd73a;fill-opacity:1;stroke-width:2.16099"
         d="m -38.535433,72.495841 a 27.347865,27.347847 0 0 0 -27.345815,27.345793 27.347865,27.347847 0 0 0 27.345815,27.349986 27.347865,27.347847 0 0 0 27.349962,-27.349986 27.347865,27.347847 0 0 0 -27.349962,-27.345793 z m 0,10.437746 v 0.0043 a 16.904432,16.904432 0 0 1 2.207434,0.155952 16.904432,16.904432 0 0 1 2.16095,0.443513 l -1.675555,6.250824 a 10.44664,10.44664 0 0 0 -1.245132,-0.270346 10.44664,10.44664 0 0 0 -1.447697,-0.126576 10.44664,10.44664 0 0 0 -10.285747,8.635507 10.44664,10.44664 0 0 0 -0.160056,1.810641 v 0.0043 13.227598 0.009 a 16.904432,16.904432 0 0 1 -6.457643,-13.236087 16.904432,16.904432 0 0 0 0,-0.0043 16.904432,16.904432 0 0 1 16.9039,-16.903813 z m 10.44617,3.667788 a 16.904432,16.904432 0 0 1 6.457644,13.240259 16.904432,16.904432 0 0 1 -16.903814,16.908046 16.904432,16.904432 0 0 1 -2.203178,-0.16005 16.904432,16.904432 0 0 1 -2.169461,-0.4435 l 1.67981,-6.25084 a 10.44664,10.44664 0 0 0 1.283105,0.27034 10.44664,10.44664 0 0 0 1.409724,0.12658 10.44664,10.44664 0 0 0 10.44617,-10.450338 V 86.61427 Z" />
    </g>
  </g>
</svg>
