<?xml version="1.0" encoding="UTF-8" standalone="no"?>
<svg
   class="ionicon"
   viewBox="0 0 416 416"
   version="1.1"
   id="svg1"
   sodipodi:docname="arrow-forward-circle.svg"
   width="416"
   height="416"
   inkscape:version="1.4 (e7c3feb1, 2024-10-09)"
   xmlns:inkscape="http://www.inkscape.org/namespaces/inkscape"
   xmlns:sodipodi="http://sodipodi.sourceforge.net/DTD/sodipodi-0.dtd"
   xmlns="http://www.w3.org/2000/svg"
   xmlns:svg="http://www.w3.org/2000/svg">
  <defs
     id="defs1" />
  <sodipodi:namedview
     id="namedview1"
     pagecolor="#ffffff"
     bordercolor="#000000"
     borderopacity="0.25"
     inkscape:showpageshadow="2"
     inkscape:pageopacity="0.0"
     inkscape:pagecheckerboard="0"
     inkscape:deskcolor="#d1d1d1"
     inkscape:zoom="0.36403244"
     inkscape:cx="137.3504"
     inkscape:cy="49.446143"
     inkscape:window-width="1920"
     inkscape:window-height="1027"
     inkscape:window-x="0"
     inkscape:window-y="25"
     inkscape:window-maximized="1"
     inkscape:current-layer="svg1" />
  <path
     d="M 416,208 C 416,93.13 322.87,0 208,0 93.13,0 0,93.13 0,208 0,322.87 93.13,416 208,416 322.87,416 416,322.87 416,208 Z m -212.65,91.36 a 16,16 0 0 1 -0.09,-22.63 L 255.58,224 H 122 a 16,16 0 0 1 0,-32 H 255.58 L 203.26,139.27 A 16.009054,16.009054 0 1 1 226,116.73 l 79.39,80 a 16,16 0 0 1 0,22.54 l -79.39,80 a 16,16 0 0 1 -22.65,0.09 z"
     id="path1"
     style="fill:#111111;fill-opacity:1" />
</svg>
