<?xml version="1.0" encoding="UTF-8" standalone="no"?>
<svg
   class="ionicon"
   viewBox="0 0 430.26199 430.26199"
   version="1.1"
   id="svg2"
   sodipodi:docname="cart (1).svg"
   width="430.26199"
   height="430.26199"
   inkscape:version="1.4 (e7c3feb1, 2024-10-09)"
   xmlns:inkscape="http://www.inkscape.org/namespaces/inkscape"
   xmlns:sodipodi="http://sodipodi.sourceforge.net/DTD/sodipodi-0.dtd"
   xmlns="http://www.w3.org/2000/svg"
   xmlns:svg="http://www.w3.org/2000/svg">
  <defs
     id="defs2" />
  <sodipodi:namedview
     id="namedview2"
     pagecolor="#ffffff"
     bordercolor="#000000"
     borderopacity="0.25"
     inkscape:showpageshadow="2"
     inkscape:pageopacity="0.0"
     inkscape:pagecheckerboard="0"
     inkscape:deskcolor="#d1d1d1"
     inkscape:zoom="0.31879789"
     inkscape:cx="388.96117"
     inkscape:cy="338.77263"
     inkscape:window-width="1920"
     inkscape:window-height="1027"
     inkscape:window-x="0"
     inkscape:window-y="25"
     inkscape:window-maximized="1"
     inkscape:current-layer="svg2" />
  <g
     id="g2"
     style="fill:#ffffff;fill-opacity:1"
     transform="translate(-32.000067,-40.869003)">
    <circle
       cx="176"
       cy="416"
       r="32"
       id="circle1"
       style="fill:#ffffff;fill-opacity:1;stroke:none" />
    <circle
       cx="400"
       cy="416"
       r="32"
       id="circle2"
       style="fill:#ffffff;fill-opacity:1;stroke:none" />
    <path
       d="M 456.8,120.78 A 23.92,23.92 0 0 0 438.24,112 H 133.89 L 127.76,77.22 A 16,16 0 0 0 112,64 H 48 a 16,16 0 0 0 0,32 h 50.58 l 45.66,258.78 A 16,16 0 0 0 160,368 h 256 a 16,16 0 0 0 0,-32 H 173.42 l -5.64,-32 H 409.44 A 24.07,24.07 0 0 0 433,284.71 l 28.8,-144 a 24,24 0 0 0 -5,-19.93 z"
       id="path2"
       style="fill:#ffffff;fill-opacity:1;stroke:none" />
  </g>
</svg>
