<?xml version="1.0" encoding="UTF-8" standalone="no"?>
<svg
   class="ionicon"
   viewBox="0 0 384 384"
   version="1.1"
   id="svg1"
   sodipodi:docname="menu.svg"
   width="384"
   height="384"
   inkscape:version="1.4 (e7c3feb1, 2024-10-09)"
   xmlns:inkscape="http://www.inkscape.org/namespaces/inkscape"
   xmlns:sodipodi="http://sodipodi.sourceforge.net/DTD/sodipodi-0.dtd"
   xmlns="http://www.w3.org/2000/svg"
   xmlns:svg="http://www.w3.org/2000/svg">
  <defs
     id="defs1" />
  <sodipodi:namedview
     id="namedview1"
     pagecolor="#ffffff"
     bordercolor="#000000"
     borderopacity="0.25"
     inkscape:showpageshadow="2"
     inkscape:pageopacity="0.0"
     inkscape:pagecheckerboard="0"
     inkscape:deskcolor="#d1d1d1"
     inkscape:zoom="0.29052268"
     inkscape:cx="61.957297"
     inkscape:cy="158.33531"
     inkscape:window-width="1920"
     inkscape:window-height="1027"
     inkscape:window-x="0"
     inkscape:window-y="25"
     inkscape:window-maximized="1"
     inkscape:current-layer="svg1" />
  <g
     id="path1"
     style="fill:#ffffff;fill-opacity:1;stroke:none"
     transform="translate(-64,-64)">
    <path
       style="fill:#ffffff;fill-opacity:1;stroke:none;stroke-linecap:round;stroke-miterlimit:10"
       d="M 88,152 H 424 M 88,256 H 424 M 88,360 h 336"
       id="path2" />
    <path
       style="fill:#ffffff;fill-opacity:1;stroke:none;stroke-linecap:round;stroke-miterlimit:10"
       d="m 88,128 a 24,24 0 0 0 -24,24 24,24 0 0 0 24,24 h 336 a 24,24 0 0 0 24,-24 24,24 0 0 0 -24,-24 z m 0,104 a 24,24 0 0 0 -24,24 24,24 0 0 0 24,24 h 336 a 24,24 0 0 0 24,-24 24,24 0 0 0 -24,-24 z m 0,104 a 24,24 0 0 0 -24,24 24,24 0 0 0 24,24 h 336 a 24,24 0 0 0 24,-24 24,24 0 0 0 -24,-24 z"
       id="path3" />
  </g>
</svg>
