<?xml version="1.0" encoding="UTF-8" standalone="no"?>
<svg
   class="ionicon"
   viewBox="0 0 479.99399 479.99399"
   version="1.1"
   id="svg1"
   sodipodi:docname="storefront.svg"
   width="479.99399"
   height="479.99399"
   inkscape:version="1.4 (e7c3feb1, 2024-10-09)"
   xmlns:inkscape="http://www.inkscape.org/namespaces/inkscape"
   xmlns:sodipodi="http://sodipodi.sourceforge.net/DTD/sodipodi-0.dtd"
   xmlns="http://www.w3.org/2000/svg"
   xmlns:svg="http://www.w3.org/2000/svg">
  <defs
     id="defs1" />
  <sodipodi:namedview
     id="namedview1"
     pagecolor="#ffffff"
     bordercolor="#000000"
     borderopacity="0.25"
     inkscape:showpageshadow="2"
     inkscape:pageopacity="0.0"
     inkscape:pagecheckerboard="0"
     inkscape:deskcolor="#d1d1d1"
     inkscape:zoom="0.28056371"
     inkscape:cx="384.93931"
     inkscape:cy="188.9054"
     inkscape:window-width="1920"
     inkscape:window-height="1027"
     inkscape:window-x="0"
     inkscape:window-y="25"
     inkscape:window-maximized="1"
     inkscape:current-layer="svg1" />
  <path
     d="m 463.99602,431.99699 h -12 a 4,4 0 0 1 -4,-4 v -170.49 a 4,4 0 0 0 -5.24,-3.86 104.92,104.92 0 0 1 -28.32,4.78 c -1.18,0 -2.3,0.05 -3.4,0.05 a 108.22,108.22 0 0 1 -52.85,-13.64 8.23,8.23 0 0 0 -8,0 108.18,108.18 0 0 1 -52.84,13.64 106.11,106.11 0 0 1 -52.46,-13.79 8.21,8.21 0 0 0 -8.09,0 108.14,108.14 0 0 1 -53.16,13.8 106.19,106.19 0 0 1 -52.77,-14 8.25,8.25 0 0 0 -8.16,0 106.19,106.19 0 0 1 -52.770003,14 c -1.09,0 -2.19,0 -3.37,-0.05 h -0.06 a 104.91,104.91 0 0 1 -29.28,-5.09 4,4 0 0 0 -5.23,3.8 v 170.85 a 4,4 0 0 1 -4,4 h -11.5 c -8.6400001,0 -16.10000014,6.64 -16.48000014,15.28 a 16,16 0 0 0 15.98000014,16.72 H 463.49602 c 8.64,0 16.1,-6.64 16.48,-15.28 a 16,16 0 0 0 -15.98,-16.72 z m -256,-68 a 4,4 0 0 1 -4,4 h -88 a 4,4 0 0 1 -4,-4 v -64 a 12,12 0 0 1 12,-12 h 72 a 12,12 0 0 1 12,12 z m 156,68 h -72 a 4,4 0 0 1 -4,-4 v -128 a 12,12 0 0 1 12,-12 h 56 a 12,12 0 0 1 12,12 v 128 a 4,4 0 0 1 -4,4 z m 112.57,-277.72 -42.92,-98.489996 c -11.24,-24.17 -36.91,-39.79 -65.4,-39.79 h -256.55 c -28.490003,0 -54.160003,15.62 -65.400003,39.79 L 3.3760169,154.27699 c -9,19.41 2.89,39.34 2.9,39.35 l 0.28,0.45 c 0.49,0.78 1.36,2 1.89,2.78 0.05,0.06 0.09,0.13 0.14,0.2 l 5.0000001,6.05 a 7.45,7.45 0 0 0 0.6,0.65 l 5,4.83 0.42,0.36 a 69.65,69.65 0 0 0 9.39,6.78 v 0.05 a 74,74 0 0 0 36,10.67 h 2.47 a 76.08,76.08 0 0 0 51.890003,-20.31 l 0.33,-0.31 a 7.94,7.94 0 0 1 10.89,0 l 0.33,0.31 a 77.3,77.3 0 0 0 104.46,0 8,8 0 0 1 10.87,0 77.31,77.31 0 0 0 104.21,0.23 7.88,7.88 0 0 1 10.71,0 76.81,76.81 0 0 0 52.31,20.08 h 2.49 a 71.35,71.35 0 0 0 35,-10.7 c 0.95,-0.57 1.86,-1.17 2.78,-1.77 a 71.33,71.33 0 0 0 18.26,-17.81 l 1.74,-2.63 q 0.26,-0.4 0.48,-0.84 c 1.66,-3.38 10.56,-20.76 2.35,-38.42 z"
     id="path1"
     style="fill:#111111;fill-opacity:1" />
</svg>
