<?xml version="1.0" encoding="UTF-8" standalone="no"?>
<svg
   class="ionicon"
   viewBox="0 0 479.98099 479.98099"
   version="1.1"
   id="svg1"
   sodipodi:docname="ticket.svg"
   width="479.98099"
   height="479.98099"
   inkscape:version="1.4 (e7c3feb1, 2024-10-09)"
   xmlns:inkscape="http://www.inkscape.org/namespaces/inkscape"
   xmlns:sodipodi="http://sodipodi.sourceforge.net/DTD/sodipodi-0.dtd"
   xmlns="http://www.w3.org/2000/svg"
   xmlns:svg="http://www.w3.org/2000/svg">
  <defs
     id="defs1" />
  <sodipodi:namedview
     id="namedview1"
     pagecolor="#ffffff"
     bordercolor="#000000"
     borderopacity="0.25"
     inkscape:showpageshadow="2"
     inkscape:pageopacity="0.0"
     inkscape:pagecheckerboard="0"
     inkscape:deskcolor="#d1d1d1"
     inkscape:zoom="0.32980183"
     inkscape:cx="518.49318"
     inkscape:cy="142.50982"
     inkscape:window-width="1920"
     inkscape:window-height="1027"
     inkscape:window-x="0"
     inkscape:window-y="25"
     inkscape:window-maximized="1"
     inkscape:current-layer="svg1" />
  <path
     d="m 474.17796,165.41049 -44.13,-44.13 a 20,20 0 0 0 -27,-1 30.81,30.81 0 0 1 -41.68,-1.6 30.81,30.81 0 0 1 -1.6,-41.669993 20,20 0 0 0 -1,-27 l -44.17,-44.1800004 a 19.91,19.91 0 0 0 -28.13,0 l -70.35,70.3400004 a 39.87,39.87 0 0 0 -9.57,15.5 7.71,7.71 0 0 1 -4.83,4.83 39.78,39.78 0 0 0 -15.5,9.579993 l -180.4000006,180.4 a 19.91,19.91 0 0 0 0,28.13 l 44.1800006,44.13 a 20,20 0 0 0 27,1 30.69,30.69 0 0 1 43.28,43.28 20,20 0 0 0 1,27 l 44.13,44.13 a 19.91,19.91 0 0 0 28.13,0 l 180.4,-180.4 a 39.82,39.82 0 0 0 9.58,-15.49 7.69,7.69 0 0 1 4.84,-4.84 39.84,39.84 0 0 0 15.49,-9.57 l 70.34,-70.35 a 19.91,19.91 0 0 0 -0.01,-28.09 z m -228.37,-29.65 a 16,16 0 0 1 -22.63,0 l -11.51,-11.51 a 16,16 0 0 1 22.63,-22.62 l 11.51,11.5 a 16,16 0 0 1 0,22.63 z m 44,44 a 16,16 0 0 1 -22.62,0 l -11,-11 a 16.001826,16.001826 0 1 1 22.63,-22.63 l 11,11 a 16,16 0 0 1 0.01,22.66 z m 44,44 a 16,16 0 0 1 -22.63,0 l -11,-11 a 16,16 0 0 1 22.63,-22.62 l 11,11 a 16,16 0 0 1 0.05,22.67 z m 44.43,44.54 a 16,16 0 0 1 -22.63,0 l -11.44,-11.5 a 16,16 0 1 1 22.68,-22.57 l 11.45,11.49 a 16,16 0 0 1 -0.01,22.63 z"
     id="path1"
     style="fill:#111111;fill-opacity:1" />
</svg>
