<?xml version="1.0" encoding="UTF-8" standalone="no"?>
<svg
   class="ionicon"
   viewBox="0 0 479.797 479.797"
   version="1.1"
   id="svg2"
   sodipodi:docname="ticket-outline.svg"
   width="479.797"
   height="479.797"
   inkscape:version="1.4 (e7c3feb1, 2024-10-09)"
   xmlns:inkscape="http://www.inkscape.org/namespaces/inkscape"
   xmlns:sodipodi="http://sodipodi.sourceforge.net/DTD/sodipodi-0.dtd"
   xmlns="http://www.w3.org/2000/svg"
   xmlns:svg="http://www.w3.org/2000/svg">
  <defs
     id="defs2" />
  <sodipodi:namedview
     id="namedview2"
     pagecolor="#ffffff"
     bordercolor="#000000"
     borderopacity="0.25"
     inkscape:showpageshadow="2"
     inkscape:pageopacity="0.0"
     inkscape:pagecheckerboard="0"
     inkscape:deskcolor="#d1d1d1"
     inkscape:zoom="0.70054541"
     inkscape:cx="148.45576"
     inkscape:cy="94.212308"
     inkscape:window-width="1920"
     inkscape:window-height="1027"
     inkscape:window-x="0"
     inkscape:window-y="25"
     inkscape:window-maximized="1"
     inkscape:current-layer="svg2" />
  <g
     id="g2"
     transform="translate(-16.101501,-16.101501)"
     style="fill:#000000;fill-opacity:0;stroke:#919191;stroke-opacity:1">
    <path
       fill="none"
       stroke="currentColor"
       stroke-miterlimit="10"
       stroke-width="32"
       d="m 366.05,146 a 46.7,46.7 0 0 1 -2.42,-63.42 3.87,3.87 0 0 0 -0.22,-5.26 L 319.28,33.14 a 3.89,3.89 0 0 0 -5.5,0 l -70.34,70.34 a 23.62,23.62 0 0 0 -5.71,9.24 v 0 a 23.66,23.66 0 0 1 -14.95,15 v 0 a 23.7,23.7 0 0 0 -9.25,5.71 L 33.14,313.78 a 3.89,3.89 0 0 0 0,5.5 l 44.13,44.13 a 3.87,3.87 0 0 0 5.26,0.22 46.69,46.69 0 0 1 65.84,65.84 3.87,3.87 0 0 0 0.22,5.26 l 44.13,44.13 a 3.89,3.89 0 0 0 5.5,0 l 180.4,-180.39 a 23.7,23.7 0 0 0 5.71,-9.25 v 0 a 23.66,23.66 0 0 1 14.95,-15 v 0 a 23.62,23.62 0 0 0 9.24,-5.71 l 70.34,-70.34 a 3.89,3.89 0 0 0 0,-5.5 l -44.13,-44.13 a 3.87,3.87 0 0 0 -5.26,-0.22 46.7,46.7 0 0 1 -63.42,-2.32 z"
       id="path1"
       style="fill:#000000;fill-opacity:0;stroke:#919191;stroke-opacity:1" />
    <path
       fill="none"
       stroke="currentColor"
       stroke-miterlimit="10"
       stroke-width="32"
       stroke-linecap="round"
       d="m 250.5,140.44 -16.51,-16.51 m 60.53,60.53 -11.01,-11 m 55.03,55.03 -11,-11.01 m 60.53,60.53 -16.51,-16.51"
       id="path2"
       style="fill:#000000;fill-opacity:0;stroke:#919191;stroke-opacity:1" />
  </g>
</svg>
